<svg width="143" height="183" viewBox="0 0 143 183" fill="none" xmlns="http://www.w3.org/2000/svg">
<rect width="143" height="183" fill="#E5E5E5"/>
<g filter="url(#filter0_iii_0_1)">
<rect x="-139" y="-295" width="430" height="884" rx="68" fill="url(#paint0_linear_0_1)"/>
<g filter="url(#filter1_di_0_1)">
<path d="M-133 -189.8C-133 -224.523 -133 -241.885 -126.242 -255.147C-120.298 -266.813 -110.813 -276.298 -99.1474 -282.242C-85.8849 -289 -68.5233 -289 -33.8 -289H185.8C220.523 -289 237.885 -289 251.147 -282.242C262.813 -276.298 272.298 -266.813 278.242 -255.147C285 -241.885 285 -224.523 285 -189.8V483.8C285 518.523 285 535.885 278.242 549.147C272.298 560.813 262.813 570.298 251.147 576.242C237.885 583 220.523 583 185.8 583H-33.8C-68.5232 583 -85.8849 583 -99.1474 576.242C-110.813 570.298 -120.298 560.813 -126.242 549.147C-133 535.885 -133 518.523 -133 483.8V-189.8Z" fill="black"/>
</g>
<rect x="-120" y="-272" width="392" height="840" rx="46" fill="url(#paint1_linear_0_1)"/>
<path d="M92.5525 87.0176C91.0287 95.6869 82.9786 101.568 74.5676 100.14C66.1567 98.7113 60.5326 90.5346 62.0865 81.8554C63.6404 73.1763 73.1942 58.5665 81.6052 59.9852C90.0162 61.4038 94.1064 78.3384 92.5525 87.0176Z" fill="#FCEFC2"/>
<path d="M77.114 101.351C76.2136 101.349 75.315 101.273 74.4273 101.125C65.485 99.6078 59.5201 90.8991 61.1342 81.6978C62.658 72.9989 72.4323 57.4435 81.8057 59.0394C85.956 59.7389 89.5049 63.8075 91.7806 70.4868C93.6753 76.0332 94.377 82.5943 93.565 87.2343C92.9391 91.108 90.9496 94.643 87.9432 97.2229C84.9368 99.8028 81.1043 101.264 77.114 101.351ZM80.5225 60.8816C73.3446 60.8816 64.6229 73.5802 63.1392 82.0229C61.7156 90.1504 66.9486 97.8443 74.7982 99.1743C82.6478 100.504 90.1966 94.9677 91.6202 86.8501C92.3721 82.6041 91.6803 76.2696 89.9159 71.0878C87.9109 65.1769 84.8433 61.5121 81.4949 60.9506C81.1737 60.8979 80.8481 60.8748 80.5225 60.8816Z" fill="#816A3C"/>
<path d="M62.698 81.4121C63.9025 85.4815 63.4126 89.8544 61.336 93.5688C59.2595 97.2832 55.7665 100.035 51.6254 101.218C47.4844 102.402 43.0344 101.921 39.2546 99.88C35.4747 97.8395 32.6746 94.4069 31.4702 90.3375C28.9639 81.8554 31.4 64.4479 40.0215 61.985C48.643 59.5221 60.1918 72.9398 62.698 81.4121Z" fill="#FCEFC2"/>
<path d="M47.0591 102.849C43.3259 102.838 39.6965 101.641 36.7132 99.4354C33.73 97.23 31.5531 94.1352 30.5078 90.6134C29.1745 86.1014 29.2045 79.4615 30.598 73.6787C32.2622 66.7827 35.5103 62.251 39.7408 61.0393C43.9714 59.8275 49.1643 61.916 54.3472 66.891C58.678 71.0385 62.3672 76.6341 63.6605 81.1363C64.9322 85.4564 64.4084 90.0958 62.2039 94.0369C59.9994 97.9781 56.2943 100.899 51.9011 102.159C50.3291 102.616 48.6984 102.848 47.0591 102.849ZM42.1568 62.6845C41.5298 62.6792 40.9053 62.7622 40.3022 62.9307C36.8436 63.9159 34.0165 68.0042 32.5429 74.1319C31.2496 79.5206 31.2095 85.9536 32.4326 90.0617C33.5626 93.8803 36.1899 97.1013 39.7366 99.0163C43.2834 100.931 47.4589 101.383 51.3448 100.273C55.2306 99.1623 58.5084 96.5804 60.457 93.0951C62.4057 89.6098 62.8656 85.5065 61.7357 81.6879C60.5126 77.5503 56.9838 72.1714 52.9538 68.3096C49.1443 64.6547 45.3247 62.6845 42.1568 62.6845Z" fill="#816A3C"/>
<path d="M120.412 90.6232C120.412 94.8611 118.699 98.9255 115.649 101.922C112.6 104.919 108.464 106.602 104.151 106.602C99.8389 106.602 95.7029 104.919 92.6535 101.922C89.604 98.9255 87.8909 94.8611 87.8909 90.6232C87.8909 81.7569 95.1691 65.7483 104.151 65.7483C113.134 65.7483 120.412 81.7963 120.412 90.6232Z" fill="#FCEFC2"/>
<path d="M104.151 107.587C99.5746 107.582 95.1868 105.793 91.9505 102.613C88.7142 99.4327 86.8937 95.1208 86.8884 90.6232C86.8884 81.7569 94.1765 64.7631 104.151 64.7631C114.126 64.7631 121.414 81.7668 121.414 90.6232C121.407 95.12 119.585 99.4304 116.349 102.61C113.114 105.79 108.727 107.58 104.151 107.587ZM104.151 66.7334C95.8006 66.7334 88.8934 82.5549 88.8934 90.6232C88.8934 94.5999 90.5009 98.4136 93.3623 101.226C96.2238 104.037 100.105 105.617 104.151 105.617C108.198 105.617 112.079 104.037 114.94 101.226C117.802 98.4136 119.409 94.5999 119.409 90.6232C119.409 82.5549 112.492 66.7334 104.151 66.7334Z" fill="#816A3C"/>
<path d="M99.6502 99.6078C99.6502 103.846 97.937 107.91 94.8876 110.907C91.8382 113.903 87.7022 115.587 83.3896 115.587C79.0771 115.587 74.9411 113.903 71.8917 110.907C68.8423 107.91 67.1291 103.846 67.1291 99.6078C67.1291 90.7414 74.4072 74.7328 83.3896 74.7328C92.3721 74.7328 99.6502 90.7808 99.6502 99.6078Z" fill="#FCEFC2"/>
<path d="M83.3896 116.572C78.8136 116.564 74.4273 114.774 71.1916 111.595C67.9559 108.415 66.1345 104.105 66.1266 99.6078C66.1266 90.7414 73.4148 73.7477 83.3896 73.7477C93.3645 73.7477 100.653 90.7513 100.653 99.6078C100.645 104.105 98.8234 108.415 95.5877 111.595C92.352 114.774 87.9656 116.564 83.3896 116.572ZM83.3896 75.7179C75.0388 75.7179 68.1316 91.5394 68.1316 99.6078C68.1316 103.584 69.7391 107.398 72.6006 110.21C75.462 113.022 79.343 114.602 83.3896 114.602C87.4363 114.602 91.3173 113.022 94.1787 110.21C97.0401 107.398 98.6477 103.584 98.6477 99.6078C98.6477 91.5 91.7405 75.7377 83.3896 75.7377V75.7179Z" fill="#816A3C"/>
<path d="M46.7182 94.8003C47.8671 98.8532 47.3431 103.188 45.2598 106.864C43.1765 110.539 39.7021 113.259 35.5907 114.433C31.4792 115.607 27.0626 115.14 23.2994 113.133C19.5362 111.127 16.7302 107.743 15.4903 103.716C12.984 95.2436 15.4101 77.836 24.0316 75.3731C32.6531 72.9103 44.2119 86.328 46.7182 94.8003Z" fill="#FCEFC2"/>
<path d="M31.0792 116.227C27.3449 116.221 23.7131 115.026 20.7289 112.82C17.7447 110.613 15.5689 107.516 14.5279 103.992C13.1946 99.4895 13.2247 92.8398 14.6081 87.0668C16.2823 80.1216 19.5204 75.6391 23.7509 74.4274C27.9815 73.2157 33.1744 75.2943 38.3674 80.2792C42.6882 84.4266 46.3874 90.0223 47.6806 94.5244C48.9551 98.8446 48.4325 103.485 46.2277 107.427C44.0228 111.369 40.3159 114.29 35.9213 115.547C34.3476 115.996 32.7176 116.224 31.0792 116.227ZM26.2271 76.0627C25.5797 76.0586 24.935 76.1448 24.3123 76.3189C20.8637 77.304 18.0367 81.3924 16.563 87.52C15.2698 92.8989 15.2297 99.3418 16.4527 103.44C16.9936 105.351 17.9148 107.137 19.1632 108.696C20.4115 110.254 21.9621 111.554 23.7252 112.52C25.4882 113.485 27.4287 114.097 29.4342 114.321C31.4398 114.544 33.4705 114.374 35.4087 113.821C37.347 113.268 39.1543 112.342 40.7259 111.098C42.2976 109.853 43.6024 108.315 44.5648 106.571C45.5272 104.828 46.128 102.914 46.3324 100.941C46.5368 98.9678 46.3409 96.9744 45.7558 95.0761C43.6405 87.9239 34.0065 76.0627 26.2271 76.0627Z" fill="#816A3C"/>
<path d="M72.4223 95.8248C72.4223 100.063 70.7091 104.127 67.6597 107.124C64.6102 110.12 60.4743 111.804 56.1617 111.804C51.8492 111.804 47.7132 110.12 44.6638 107.124C41.6143 104.127 39.9012 100.063 39.9012 95.8248C39.9012 86.9585 47.1793 70.9498 56.1617 70.9498C65.1441 70.9498 72.4223 86.9979 72.4223 95.8248Z" fill="#FCEFC2"/>
<path d="M56.1617 112.789C51.5857 112.781 47.1994 110.991 43.9637 107.812C40.728 104.632 38.9066 100.322 38.8987 95.8248C38.8987 86.9585 46.1869 69.9647 56.1617 69.9647C66.1366 69.9647 73.4248 86.9683 73.4248 95.8248C73.4195 100.322 71.599 104.634 68.3627 107.815C65.1264 110.995 60.7385 112.784 56.1617 112.789ZM56.1617 71.935C47.8109 71.935 40.9037 87.7564 40.9037 95.8248C40.9037 99.8014 42.5112 103.615 45.3727 106.427C48.2341 109.239 52.115 110.819 56.1617 110.819C60.2084 110.819 64.0894 109.239 66.9508 106.427C69.8122 103.615 71.4198 99.8014 71.4198 95.8248C71.4198 87.7564 64.4825 71.935 56.1617 71.935Z" fill="#816A3C"/>
<path d="M130.236 105.873C129.023 109.94 126.215 113.366 122.43 115.399C118.646 117.431 114.195 117.903 110.056 116.71C105.918 115.517 102.431 112.758 100.363 109.039C98.2948 105.32 97.8149 100.946 99.0286 96.8789C101.565 88.4066 113.144 75.0283 121.765 77.5109C130.387 79.9935 132.763 97.4109 130.236 105.873Z" fill="#FCEFC2"/>
<path d="M114.658 118.345C113.002 118.345 111.355 118.113 109.765 117.656C105.373 116.388 101.674 113.458 99.4799 109.51C97.286 105.562 96.7775 100.919 98.0662 96.603C99.4196 92.1009 103.079 86.5152 107.42 82.3775C112.623 77.4518 117.815 75.3436 122.046 76.5652C131.61 79.3236 133.735 97.6572 131.199 106.12C130.148 109.632 127.969 112.717 124.988 114.913C122.007 117.109 118.383 118.299 114.658 118.306V118.345ZM119.62 78.2005C116.462 78.2005 112.602 80.1708 108.833 83.7961C104.823 87.6481 101.254 93.0171 100.011 97.1547C99.447 99.0442 99.2671 101.024 99.4817 102.982C99.6963 104.94 100.301 106.837 101.262 108.565C102.223 110.293 103.52 111.818 105.081 113.053C106.641 114.289 108.434 115.21 110.357 115.764C114.24 116.884 118.417 116.442 121.968 114.535C123.727 113.591 125.279 112.316 126.536 110.782C127.793 109.249 128.73 107.487 129.294 105.597C131.871 96.9774 129.053 80.6338 121.505 78.4566C120.893 78.2807 120.258 78.1944 119.62 78.2005Z" fill="#816A3C"/>
<path d="M7.2698 98.7605C7.17652 98.7707 7.08238 98.7707 6.9891 98.7605C6.79489 98.725 6.60971 98.6522 6.44413 98.5463C6.27856 98.4405 6.13584 98.3036 6.02412 98.1435C5.91241 97.9834 5.83389 97.8032 5.79305 97.6133C5.75221 97.4233 5.74984 97.2273 5.7861 97.0365C8.87603 82.7571 13.6256 68.874 19.9414 55.6604C33.405 28.1748 51.3898 13.6734 71.9912 13.6734C92.5926 13.6734 110.597 28.1748 124.031 55.5815C130.356 68.8088 135.105 82.7093 138.186 97.007C138.232 97.3786 138.132 97.7533 137.907 98.0553C137.682 98.3574 137.349 98.5643 136.975 98.6343C136.6 98.7044 136.213 98.6323 135.891 98.4326C135.569 98.233 135.336 97.9206 135.239 97.5586C135.079 96.7508 119.049 16.6387 71.9912 16.6387C24.9339 16.6387 8.89385 96.7508 8.74348 97.5586C8.67646 97.8952 8.49318 98.1987 8.22463 98.4177C7.95609 98.6367 7.61877 98.7578 7.2698 98.7605Z" fill="#816A3C"/>
<path d="M141.525 122.158C141.541 126.462 141.24 130.762 140.622 135.024C140.382 136.6 140.111 138.127 139.79 139.605C138.542 145.645 136.253 151.433 133.023 156.717C121.144 175.671 98.0362 181.907 71.5 181.907C44.9639 181.907 21.8562 175.671 9.97661 156.717C6.74689 151.433 4.45842 145.645 3.20973 139.605C2.88893 138.127 2.61825 136.6 2.37765 135.024C1.76057 130.762 1.45902 126.462 1.47539 122.158C1.47539 121.173 1.47539 120.187 1.47539 119.153C1.8246 109.988 3.11775 100.882 5.33503 91.9729L19.1094 104.543L30.1369 91.3719L45.9363 104.386L58.4675 91.3719L76.1116 102.809L87.6804 91.3719L102.718 102.888L115.229 87.6776L126.778 102.642L137.665 90.6626C139.369 98.6029 141.254 111.607 141.465 119.153C141.505 120.168 141.525 121.173 141.525 122.158Z" fill="#68E1FD"/>
<path d="M71.5 182.892C40.3523 182.892 19.9515 174.499 9.12445 157.278C5.82965 151.872 3.50034 145.951 2.23728 139.772C1.91648 138.344 1.6458 136.817 1.38515 135.122C0.763845 130.815 0.458961 126.469 0.472867 122.118C0.472867 121.133 0.472867 120.148 0.472867 119.084C0.810902 109.866 2.10413 100.706 4.3325 91.7463C4.37212 91.5783 4.45594 91.4234 4.57557 91.2972C4.6952 91.171 4.84644 91.0779 5.01419 91.0271C5.18654 90.9724 5.37076 90.9645 5.54727 91.0044C5.72379 91.0443 5.88601 91.1305 6.01669 91.2537L19.0492 103.075L29.395 90.7513C29.4792 90.6509 29.5827 90.5678 29.6997 90.507C29.8168 90.4461 29.9449 90.4086 30.0767 90.3966C30.2095 90.384 30.3435 90.3975 30.4709 90.4365C30.5983 90.4754 30.7165 90.5389 30.8186 90.6232L45.8561 103.036L57.7958 90.702C57.9571 90.5352 58.1727 90.429 58.4052 90.402C58.6378 90.375 58.8726 90.4289 59.069 90.5543L76.0113 101.549L87.0388 90.7119C87.2118 90.5427 87.4416 90.4414 87.6853 90.4268C87.9289 90.4123 88.1695 90.4857 88.3621 90.6331L102.658 101.549L114.547 87.0866C114.642 86.9723 114.761 86.8802 114.896 86.8171C115.032 86.754 115.18 86.7215 115.329 86.722C115.481 86.7239 115.63 86.7594 115.765 86.826C115.901 86.8925 116.019 86.9883 116.111 87.1062L126.928 101.125L136.953 90.042C137.075 89.905 137.234 89.804 137.411 89.7501C137.588 89.6962 137.776 89.6915 137.956 89.7366C138.135 89.7837 138.297 89.8785 138.424 90.0107C138.552 90.1429 138.639 90.3072 138.678 90.4853C140.352 98.2975 142.287 111.489 142.497 119.163C142.497 120.148 142.547 121.192 142.547 122.187C142.561 126.538 142.256 130.884 141.635 135.191C141.374 136.896 141.104 138.413 140.783 139.841C139.511 145.993 137.182 151.886 133.896 157.268C123.049 174.499 102.648 182.892 71.5 182.892ZM5.87634 93.8545C3.93458 102.172 2.81328 110.654 2.528 119.183C2.528 120.168 2.528 121.153 2.528 122.138C2.48279 126.388 2.75082 130.635 3.33 134.846C3.58062 136.502 3.85131 137.979 4.15206 139.368C5.38146 145.3 7.62905 150.984 10.7986 156.175C21.2246 172.814 41.0641 180.892 71.4599 180.892C101.856 180.892 121.695 172.814 132.121 156.175C135.291 150.984 137.538 145.3 138.768 139.368C139.069 137.979 139.339 136.502 139.59 134.846C140.2 130.634 140.498 126.383 140.482 122.128C140.482 121.143 140.482 120.158 140.432 119.173C140.241 112.198 138.597 100.603 137.054 92.7708L127.64 103.322C127.541 103.43 127.418 103.516 127.281 103.572C127.144 103.628 126.996 103.654 126.848 103.647C126.702 103.641 126.559 103.603 126.429 103.537C126.299 103.47 126.185 103.377 126.096 103.263L115.309 89.2933L103.58 103.509C103.415 103.712 103.174 103.842 102.911 103.872C102.648 103.901 102.384 103.828 102.177 103.667L87.8107 92.692L76.8734 103.529C76.7103 103.69 76.4953 103.791 76.2651 103.814C76.0349 103.838 75.8035 103.782 75.6103 103.657L58.668 92.6723L46.638 105.085C46.4625 105.268 46.2225 105.378 45.9672 105.393C45.7119 105.407 45.4605 105.325 45.2646 105.164L30.2271 92.7905L19.8011 105.194C19.7146 105.294 19.6085 105.377 19.489 105.436C19.3695 105.496 19.2391 105.531 19.1055 105.54C18.9718 105.549 18.8377 105.532 18.7109 105.49C18.5842 105.447 18.4674 105.38 18.3675 105.292L5.87634 93.8545Z" fill="#816A3C"/>
<path d="M141.525 122.158C141.541 126.462 141.24 130.762 140.622 135.024C140.382 136.6 140.111 138.127 139.79 139.605C138.542 145.645 136.253 151.432 133.023 156.717H9.97661C6.74689 151.432 4.45842 145.645 3.20973 139.605C2.88893 138.127 2.61825 136.6 2.37765 135.024C1.76057 130.762 1.45902 126.462 1.47539 122.158C1.47539 121.173 1.47539 120.187 1.47539 119.153H141.475C141.505 120.168 141.525 121.173 141.525 122.158Z" fill="white"/>
<path d="M133.023 157.702H9.97658C9.80621 157.702 9.63856 157.66 9.48946 157.579C9.34037 157.498 9.21474 157.381 9.12445 157.239C5.83389 151.844 3.50471 145.937 2.23728 139.772C1.91648 138.344 1.6458 136.817 1.38515 135.122C0.763845 130.815 0.458961 126.469 0.472867 122.118C0.472867 121.133 0.472867 120.148 0.472867 119.084C0.472867 118.823 0.578487 118.572 0.766492 118.388C0.954497 118.203 1.20949 118.099 1.47537 118.099H141.475C141.74 118.099 141.995 118.203 142.183 118.388C142.371 118.572 142.477 118.823 142.477 119.084C142.477 120.069 142.527 121.123 142.527 122.118C142.541 126.469 142.236 130.815 141.615 135.122C141.354 136.827 141.084 138.344 140.763 139.772C139.491 145.924 137.162 151.817 133.876 157.199C133.79 157.349 133.667 157.474 133.517 157.562C133.368 157.65 133.198 157.698 133.023 157.702ZM10.548 155.732H132.452C135.468 150.666 137.615 145.148 138.808 139.398C139.109 138.009 139.379 136.531 139.63 134.876C140.24 130.663 140.538 126.413 140.522 122.158C140.522 121.498 140.522 120.818 140.522 120.138H2.50794C2.50794 120.818 2.50794 121.498 2.50794 122.158C2.47034 126.401 2.74509 130.642 3.33 134.846C3.58062 136.502 3.85131 137.979 4.15206 139.368C5.35448 145.131 7.51542 150.66 10.548 155.732Z" fill="#816A3C"/>
<path d="M63.1893 16.4909L55.1091 36.115L63.1893 33.1891L67.6805 37.839L71.5 14.5994L63.1893 16.4909Z" fill="#68E1FD"/>
<path d="M67.6805 38.8242C67.5438 38.825 67.4083 38.7984 67.2825 38.7458C67.1566 38.6933 67.043 38.6161 66.9487 38.5188L62.9387 34.3418L55.46 37.0411C55.2783 37.1058 55.0814 37.1176 54.8931 37.0749C54.7048 37.0323 54.533 36.937 54.3984 36.8007C54.2639 36.6643 54.1724 36.4926 54.1348 36.3063C54.0973 36.12 54.1153 35.927 54.1868 35.7505L62.267 16.1166C62.3271 15.9699 62.4223 15.8397 62.5444 15.7368C62.6665 15.6339 62.8121 15.5614 62.9687 15.5255L71.2694 13.6734C71.4268 13.6357 71.591 13.636 71.7482 13.6742C71.9054 13.7125 72.0508 13.7876 72.172 13.8932C72.2932 13.9987 72.3865 14.1315 72.4441 14.2802C72.5017 14.429 72.5217 14.5892 72.5025 14.7472L68.683 37.9967C68.6533 38.1796 68.5716 38.3506 68.4475 38.49C68.3234 38.6294 68.1618 38.7315 67.9812 38.7848C67.8839 38.8141 67.7823 38.8275 67.6805 38.8242ZM63.1893 32.204C63.326 32.2032 63.4615 32.2298 63.5873 32.2824C63.7132 32.3349 63.8268 32.4121 63.9211 32.5094L67.0088 35.721L70.277 15.89L63.9311 17.3283L56.9136 34.4304L62.8685 32.273C62.9697 32.2293 63.0788 32.2058 63.1893 32.204Z" fill="#816A3C"/>
<path d="M79.8107 16.4909L87.8909 36.115L79.8107 33.1891L75.3195 37.839L71.5 14.5994L79.8107 16.4909Z" fill="#68E1FD"/>
<path d="M75.3195 38.8242C75.2232 38.8393 75.1251 38.8393 75.0288 38.8242C74.8482 38.7709 74.6866 38.6688 74.5625 38.5294C74.4384 38.3899 74.3568 38.219 74.327 38.0361L70.4975 14.7472C70.4783 14.5892 70.4983 14.429 70.5559 14.2802C70.6135 14.1315 70.7068 13.9987 70.828 13.8932C70.9492 13.7876 71.0946 13.7125 71.2518 13.6742C71.409 13.636 71.5732 13.6357 71.7306 13.6734L80.0313 15.5649C80.1879 15.6008 80.3334 15.6733 80.4556 15.7762C80.5777 15.8791 80.6729 16.0093 80.733 16.156L88.8132 35.7899C88.8739 35.9643 88.8837 36.1519 88.8413 36.3315C88.799 36.511 88.7062 36.6753 88.5736 36.8056C88.441 36.936 88.2738 37.0271 88.0911 37.0687C87.9084 37.1104 87.7174 37.1008 87.54 37.0411L80.0814 34.3615L76.0714 38.5385C75.973 38.6347 75.8554 38.7097 75.726 38.7589C75.5965 38.8081 75.4581 38.8303 75.3195 38.8242ZM72.723 15.89L75.9912 35.721L79.0789 32.5094C79.2148 32.3716 79.3887 32.2758 79.5793 32.2338C79.7699 32.1918 79.9688 32.2054 80.1516 32.273L86.1064 34.4304L79.0889 17.3283L72.723 15.89Z" fill="#816A3C"/>
<path d="M56.0515 23.9091L67.6805 18.1952V7.35861L56.0515 1.64476C53.044 0.17689 49.3347 2.02896 49.3347 4.99426V20.5694C49.3347 23.5249 53.054 25.3769 56.0515 23.9091Z" fill="#68E1FD"/>
<path d="M53.8259 25.4065C52.7221 25.405 51.64 25.1051 50.6981 24.5396C49.9915 24.1389 49.4024 23.5655 48.9878 22.875C48.5733 22.1846 48.3474 21.4005 48.3322 20.599V4.95484C48.3484 4.15352 48.5747 3.36984 48.9891 2.67955C49.4036 1.98926 49.9922 1.41568 50.6981 1.01425C51.5657 0.494835 52.5531 0.19983 53.5681 0.156763C54.5831 0.113697 55.5926 0.323971 56.5026 0.767967L68.1316 6.48182C68.2984 6.56444 68.4385 6.69123 68.5359 6.84789C68.6333 7.00456 68.6843 7.18485 68.683 7.36845V18.2051C68.6824 18.387 68.6306 18.5652 68.5333 18.72C68.436 18.8747 68.2969 19 68.1316 19.0819L56.4625 24.7859C55.6431 25.1872 54.7414 25.3995 53.8259 25.4065ZM53.8159 2.06836C53.0875 2.07097 52.3735 2.2685 51.7507 2.63974C51.331 2.87202 50.98 3.20758 50.7322 3.61347C50.4844 4.01936 50.3483 4.48162 50.3372 4.95484V20.5694C50.349 21.0412 50.4855 21.5018 50.7334 21.906C50.9812 22.3102 51.3318 22.644 51.7507 22.8747C52.3273 23.2164 52.9822 23.4101 53.655 23.4376C54.3278 23.4651 54.9968 23.3258 55.6003 23.0323L66.678 17.614V7.95954L55.6003 2.51167C55.0485 2.22994 54.4376 2.07817 53.8159 2.06836Z" fill="#816A3C"/>
<path d="M57.7657 17.4465C57.5292 17.4486 57.2995 17.3684 57.1174 17.2201C56.9352 17.0718 56.8122 16.865 56.7702 16.6363C56.7282 16.4075 56.7699 16.1715 56.8879 15.9701C57.0058 15.7686 57.1925 15.6146 57.4149 15.5353L64.272 12.9739L54.8785 10.7967C54.6211 10.7359 54.3986 10.5775 54.2596 10.356C54.1206 10.1345 54.0764 9.86795 54.1367 9.61457C54.1662 9.48839 54.2208 9.36918 54.2973 9.26374C54.3737 9.1583 54.4706 9.06871 54.5823 9.00008C54.6941 8.93146 54.8185 8.88516 54.9484 8.86382C55.0784 8.84248 55.2113 8.84652 55.3397 8.87571L67.911 11.8311C68.1203 11.8797 68.3082 11.9932 68.4468 12.1547C68.5855 12.3162 68.6676 12.5172 68.6811 12.7281C68.6946 12.939 68.6387 13.1486 68.5217 13.3259C68.4047 13.5032 68.2328 13.6388 68.0313 13.7128L58.1266 17.4169C58.0095 17.4501 57.8869 17.4602 57.7657 17.4465Z" fill="#816A3C"/>
<path d="M86.9485 23.9091L75.3195 18.1952V7.35861L86.9485 1.64476C89.956 0.17689 93.6653 2.02896 93.6653 4.99426V20.5694C93.6653 23.5249 89.946 25.3769 86.9485 23.9091Z" fill="#68E1FD"/>
<path d="M89.1741 25.4065C88.2451 25.4055 87.3289 25.1931 86.4974 24.7858L74.8684 19.072C74.7031 18.9901 74.5641 18.8649 74.4667 18.7101C74.3694 18.5553 74.3176 18.3771 74.317 18.1952V7.35859C74.3157 7.17499 74.3667 6.99469 74.4641 6.83803C74.5615 6.68137 74.7016 6.55457 74.8684 6.47196L86.4974 0.758106C87.4074 0.31411 88.4169 0.103839 89.4319 0.146906C90.4469 0.189973 91.4343 0.484974 92.3019 1.00439C93.0078 1.40582 93.5964 1.9794 94.0109 2.66969C94.4253 3.35998 94.6516 4.14365 94.6678 4.94498V20.5694C94.6525 21.3709 94.4267 22.155 94.0121 22.8454C93.5976 23.5359 93.0085 24.1093 92.3019 24.51C91.3631 25.0859 90.2808 25.3961 89.1741 25.4065ZM87.3997 23.0224C88.0032 23.3159 88.6722 23.4553 89.345 23.4277C90.0178 23.4002 90.6727 23.2066 91.2492 22.8648C91.6667 22.635 92.0164 22.3027 92.2642 21.9004C92.5119 21.498 92.6493 21.0395 92.6628 20.5694V4.95483C92.6517 4.48161 92.5156 4.01936 92.2678 3.61347C92.02 3.20758 91.6689 2.87201 91.2492 2.63974C90.6727 2.29795 90.0178 2.10436 89.345 2.07681C88.6722 2.04926 88.0032 2.18865 87.3997 2.48211L76.322 7.92997V17.614L87.3997 23.0224Z" fill="#816A3C"/>
<path d="M85.2342 17.4465C85.1104 17.4475 84.9877 17.4241 84.8733 17.3775L74.9687 13.6734C74.7672 13.5994 74.5953 13.4638 74.4783 13.2865C74.3613 13.1092 74.3054 12.8996 74.3189 12.6887C74.3324 12.4778 74.4145 12.2768 74.5532 12.1153C74.6918 11.9538 74.8797 11.8403 75.0889 11.7918L87.6603 8.83631C87.7886 8.80712 87.9216 8.80308 88.0516 8.82442C88.1815 8.84576 88.3059 8.89207 88.4177 8.96069C88.5294 9.02931 88.6262 9.1189 88.7027 9.22434C88.7792 9.32978 88.8338 9.44899 88.8633 9.57517C88.9236 9.82855 88.8794 10.0951 88.7404 10.3166C88.6014 10.5381 88.3789 10.6965 88.1214 10.7574L78.728 12.9345L85.5851 15.4959C85.8075 15.5752 85.9942 15.7292 86.1121 15.9307C86.2301 16.1321 86.2718 16.3681 86.2298 16.5969C86.1878 16.8257 86.0648 17.0324 85.8826 17.1807C85.7004 17.329 85.4708 17.4092 85.2342 17.4071V17.4465Z" fill="#816A3C"/>
<path d="M74.0564 6.45226H68.9537C67.5474 6.45226 66.4073 7.57256 66.4073 8.95453V16.5599C66.4073 17.9418 67.5474 19.0621 68.9537 19.0621H74.0564C75.4627 19.0621 76.6027 17.9418 76.6027 16.5599V8.95453C76.6027 7.57256 75.4627 6.45226 74.0564 6.45226Z" fill="#68E1FD"/>
<path d="M74.0564 20.0473H68.9436C68.0041 20.0447 67.1041 19.6761 66.4407 19.0224C65.7773 18.3686 65.4048 17.4831 65.4048 16.5599V8.94467C65.4048 8.02236 65.7776 7.13783 66.4413 6.48566C67.105 5.83349 68.0051 5.4671 68.9436 5.4671H74.0564C74.9949 5.4671 75.895 5.83349 76.5587 6.48566C77.2224 7.13783 77.5952 8.02236 77.5952 8.94467V16.5599C77.5952 17.4831 77.2227 18.3686 76.5593 19.0224C75.8959 19.6761 74.9959 20.0447 74.0564 20.0473ZM68.9436 7.4374C68.5376 7.43998 68.149 7.59961 67.8619 7.88172C67.5749 8.16383 67.4124 8.54571 67.4098 8.94467V16.5599C67.4098 16.9605 67.5711 17.3449 67.8584 17.6292C68.1458 17.9134 68.5359 18.0744 68.9436 18.077H74.0564C74.4641 18.0744 74.8542 17.9134 75.1416 17.6292C75.4289 17.3449 75.5902 16.9605 75.5902 16.5599V8.94467C75.5876 8.54571 75.4251 8.16383 75.1381 7.88172C74.851 7.59961 74.4624 7.43998 74.0564 7.4374H68.9436Z" fill="#816A3C"/>
<path d="M139.79 140.59H3.20973C2.9766 140.595 2.74895 140.52 2.56598 140.378C2.383 140.236 2.25614 140.036 2.20723 139.812C1.88643 138.383 1.61575 136.856 1.3551 135.162C1.33329 135.021 1.34299 134.876 1.38351 134.739C1.42403 134.602 1.4944 134.475 1.58976 134.367C1.68512 134.26 1.80317 134.174 1.93576 134.115C2.06834 134.057 2.21228 134.027 2.3576 134.029H140.673C140.818 134.027 140.962 134.057 141.094 134.115C141.227 134.174 141.345 134.26 141.44 134.367C141.536 134.475 141.606 134.602 141.647 134.739C141.687 134.876 141.697 135.021 141.675 135.162C141.414 136.866 141.144 138.383 140.823 139.812C140.773 140.041 140.642 140.245 140.453 140.388C140.263 140.53 140.029 140.602 139.79 140.59ZM4.03177 138.62H138.968C139.139 137.792 139.299 136.925 139.46 135.999H3.54056C3.70096 136.925 3.86135 137.802 4.03177 138.62Z" fill="#816A3C"/>
</g>
<defs>
<filter id="filter0_iii_0_1" x="-143" y="-295" width="438" height="885" filterUnits="userSpaceOnUse" color-interpolation-filters="sRGB">
<feFlood flood-opacity="0" result="BackgroundImageFix"/>
<feBlend mode="normal" in="SourceGraphic" in2="BackgroundImageFix" result="shape"/>
<feColorMatrix in="SourceAlpha" type="matrix" values="0 0 0 0 0 0 0 0 0 0 0 0 0 0 0 0 0 0 127 0" result="hardAlpha"/>
<feMorphology radius="2.01856" operator="erode" in="SourceAlpha" result="effect1_innerShadow_0_1"/>
<feOffset/>
<feGaussianBlur stdDeviation="2.5232"/>
<feComposite in2="hardAlpha" operator="arithmetic" k2="-1" k3="1"/>
<feColorMatrix type="matrix" values="0 0 0 0 0.670833 0 0 0 0 0.551574 0 0 0 0 0.536667 0 0 0 1 0"/>
<feBlend mode="normal" in2="shape" result="effect1_innerShadow_0_1"/>
<feColorMatrix in="SourceAlpha" type="matrix" values="0 0 0 0 0 0 0 0 0 0 0 0 0 0 0 0 0 0 127 0" result="hardAlpha"/>
<feMorphology radius="1.00928" operator="erode" in="SourceAlpha" result="effect2_innerShadow_0_1"/>
<feOffset/>
<feGaussianBlur stdDeviation="2"/>
<feComposite in2="hardAlpha" operator="arithmetic" k2="-1" k3="1"/>
<feColorMatrix type="matrix" values="0 0 0 0 0.766667 0 0 0 0 0.616173 0 0 0 0 0.597361 0 0 0 1 0"/>
<feBlend mode="normal" in2="effect1_innerShadow_0_1" result="effect2_innerShadow_0_1"/>
<feColorMatrix in="SourceAlpha" type="matrix" values="0 0 0 0 0 0 0 0 0 0 0 0 0 0 0 0 0 0 127 0" result="hardAlpha"/>
<feMorphology radius="1.00928" operator="erode" in="SourceAlpha" result="effect3_innerShadow_0_1"/>
<feOffset dy="1"/>
<feGaussianBlur stdDeviation="0.5"/>
<feComposite in2="hardAlpha" operator="arithmetic" k2="-1" k3="1"/>
<feColorMatrix type="matrix" values="0 0 0 0 0.964706 0 0 0 0 0.901961 0 0 0 0 0.894118 0 0 0 1 0"/>
<feBlend mode="normal" in2="effect2_innerShadow_0_1" result="effect3_innerShadow_0_1"/>
</filter>
<filter id="filter1_di_0_1" x="-135.019" y="-291.019" width="422.037" height="876.037" filterUnits="userSpaceOnUse" color-interpolation-filters="sRGB">
<feFlood flood-opacity="0" result="BackgroundImageFix"/>
<feColorMatrix in="SourceAlpha" type="matrix" values="0 0 0 0 0 0 0 0 0 0 0 0 0 0 0 0 0 0 127 0" result="hardAlpha"/>
<feOffset/>
<feGaussianBlur stdDeviation="1.00928"/>
<feComposite in2="hardAlpha" operator="out"/>
<feColorMatrix type="matrix" values="0 0 0 0 0 0 0 0 0 0 0 0 0 0 0 0 0 0 0.5 0"/>
<feBlend mode="normal" in2="BackgroundImageFix" result="effect1_dropShadow_0_1"/>
<feBlend mode="normal" in="SourceGraphic" in2="effect1_dropShadow_0_1" result="shape"/>
<feColorMatrix in="SourceAlpha" type="matrix" values="0 0 0 0 0 0 0 0 0 0 0 0 0 0 0 0 0 0 127 0" result="hardAlpha"/>
<feOffset/>
<feGaussianBlur stdDeviation="4.5"/>
<feComposite in2="hardAlpha" operator="arithmetic" k2="-1" k3="1"/>
<feColorMatrix type="matrix" values="0 0 0 0 1 0 0 0 0 1 0 0 0 0 1 0 0 0 0.25 0"/>
<feBlend mode="normal" in2="shape" result="effect2_innerShadow_0_1"/>
</filter>
<linearGradient id="paint0_linear_0_1" x1="76" y1="-295" x2="76" y2="589" gradientUnits="userSpaceOnUse">
<stop stop-color="#F4E5E3"/>
<stop offset="1" stop-color="#ECD6D2"/>
</linearGradient>
<linearGradient id="paint1_linear_0_1" x1="83.5" y1="-272" x2="75.7248" y2="567.997" gradientUnits="userSpaceOnUse">
<stop stop-color="white"/>
<stop offset="1" stop-color="#DEAF3C"/>
</linearGradient>
</defs>
</svg>
